<svg width="208" height="208" viewBox="0 0 208 208" fill="none" xmlns="http://www.w3.org/2000/svg">
<g filter="url(#filter0_dd)">
<path fill-rule="evenodd" clip-rule="evenodd" d="M104 200C159.228 200 204 155.228 204 100C204 44.7715 159.228 0 104 0C48.7715 0 4 44.7715 4 100C4 155.228 48.7715 200 104 200Z" fill="#C4C4C4"/>
</g>
<g filter="url(#filter1_ddd)">
<path d="M12.7891 120H8.28906V85.875H12.7891V120ZM39.8594 104.93H25.5391V120H21.0391V85.875H42.1797V89.5781H25.5391V101.25H39.8594V104.93ZM71.5938 85.875V109.078C71.5781 112.297 70.5625 114.93 68.5469 116.977C66.5469 119.023 63.8281 120.172 60.3906 120.422L59.1953 120.469C55.4609 120.469 52.4844 119.461 50.2656 117.445C48.0469 115.43 46.9219 112.656 46.8906 109.125V85.875H51.3438V108.984C51.3438 111.453 52.0234 113.375 53.3828 114.75C54.7422 116.109 56.6797 116.789 59.1953 116.789C61.7422 116.789 63.6875 116.109 65.0312 114.75C66.3906 113.391 67.0703 111.477 67.0703 109.008V85.875H71.5938ZM78.6953 120V85.875H88.3281C91.2969 85.875 93.9219 86.5312 96.2031 87.8438C98.4844 89.1562 100.242 91.0234 101.477 93.4453C102.727 95.8672 103.359 98.6484 103.375 101.789V103.969C103.375 107.188 102.75 110.008 101.5 112.43C100.266 114.852 98.4922 116.711 96.1797 118.008C93.8828 119.305 91.2031 119.969 88.1406 120H78.6953ZM83.1953 89.5781V116.32H87.9297C91.3984 116.32 94.0938 115.242 96.0156 113.086C97.9531 110.93 98.9219 107.859 98.9219 103.875V101.883C98.9219 98.0078 98.0078 95 96.1797 92.8594C94.3672 90.7031 91.7891 89.6094 88.4453 89.5781H83.1953ZM136.445 104.039C136.445 107.383 135.883 110.305 134.758 112.805C133.633 115.289 132.039 117.188 129.977 118.5C127.914 119.812 125.508 120.469 122.758 120.469C120.07 120.469 117.688 119.812 115.609 118.5C113.531 117.172 111.914 115.289 110.758 112.852C109.617 110.398 109.031 107.562 109 104.344V101.883C109 98.6016 109.57 95.7031 110.711 93.1875C111.852 90.6719 113.461 88.75 115.539 87.4219C117.633 86.0781 120.023 85.4062 122.711 85.4062C125.445 85.4062 127.852 86.0703 129.93 87.3984C132.023 88.7109 133.633 90.625 134.758 93.1406C135.883 95.6406 136.445 98.5547 136.445 101.883V104.039ZM131.969 101.836C131.969 97.7891 131.156 94.6875 129.531 92.5312C127.906 90.3594 125.633 89.2734 122.711 89.2734C119.867 89.2734 117.625 90.3594 115.984 92.5312C114.359 94.6875 113.523 97.6875 113.477 101.531V104.039C113.477 107.961 114.297 111.047 115.938 113.297C117.594 115.531 119.867 116.648 122.758 116.648C125.664 116.648 127.914 115.594 129.508 113.484C131.102 111.359 131.922 108.32 131.969 104.367V101.836ZM143.195 120V85.875H152.828C155.797 85.875 158.422 86.5312 160.703 87.8438C162.984 89.1562 164.742 91.0234 165.977 93.4453C167.227 95.8672 167.859 98.6484 167.875 101.789V103.969C167.875 107.188 167.25 110.008 166 112.43C164.766 114.852 162.992 116.711 160.68 118.008C158.383 119.305 155.703 119.969 152.641 120H143.195ZM147.695 89.5781V116.32H152.43C155.898 116.32 158.594 115.242 160.516 113.086C162.453 110.93 163.422 107.859 163.422 103.875V101.883C163.422 98.0078 162.508 95 160.68 92.8594C158.867 90.7031 156.289 89.6094 152.945 89.5781H147.695ZM200.945 104.039C200.945 107.383 200.383 110.305 199.258 112.805C198.133 115.289 196.539 117.188 194.477 118.5C192.414 119.812 190.008 120.469 187.258 120.469C184.57 120.469 182.188 119.812 180.109 118.5C178.031 117.172 176.414 115.289 175.258 112.852C174.117 110.398 173.531 107.562 173.5 104.344V101.883C173.5 98.6016 174.07 95.7031 175.211 93.1875C176.352 90.6719 177.961 88.75 180.039 87.4219C182.133 86.0781 184.523 85.4062 187.211 85.4062C189.945 85.4062 192.352 86.0703 194.43 87.3984C196.523 88.7109 198.133 90.625 199.258 93.1406C200.383 95.6406 200.945 98.5547 200.945 101.883V104.039ZM196.469 101.836C196.469 97.7891 195.656 94.6875 194.031 92.5312C192.406 90.3594 190.133 89.2734 187.211 89.2734C184.367 89.2734 182.125 90.3594 180.484 92.5312C178.859 94.6875 178.023 97.6875 177.977 101.531V104.039C177.977 107.961 178.797 111.047 180.438 113.297C182.094 115.531 184.367 116.648 187.258 116.648C190.164 116.648 192.414 115.594 194.008 113.484C195.602 111.359 196.422 108.32 196.469 104.367V101.836Z" fill="black"/>
</g>
<defs>
<filter id="filter0_dd" x="0" y="0" width="208" height="208" filterUnits="userSpaceOnUse" color-interpolation-filters="sRGB">
<feFlood flood-opacity="0" result="BackgroundImageFix"/>
<feColorMatrix in="SourceAlpha" type="matrix" values="0 0 0 0 0 0 0 0 0 0 0 0 0 0 0 0 0 0 127 0"/>
<feOffset dy="4"/>
<feGaussianBlur stdDeviation="2"/>
<feColorMatrix type="matrix" values="0 0 0 0 0 0 0 0 0 0 0 0 0 0 0 0 0 0 0.25 0"/>
<feBlend mode="normal" in2="BackgroundImageFix" result="effect1_dropShadow"/>
<feColorMatrix in="SourceAlpha" type="matrix" values="0 0 0 0 0 0 0 0 0 0 0 0 0 0 0 0 0 0 127 0"/>
<feOffset dy="4"/>
<feGaussianBlur stdDeviation="2"/>
<feColorMatrix type="matrix" values="0 0 0 0 0 0 0 0 0 0 0 0 0 0 0 0 0 0 0.25 0"/>
<feBlend mode="normal" in2="effect1_dropShadow" result="effect2_dropShadow"/>
<feBlend mode="normal" in="SourceGraphic" in2="effect2_dropShadow" result="shape"/>
</filter>
<filter id="filter1_ddd" x="4.28906" y="85.4062" width="200.656" height="43.0625" filterUnits="userSpaceOnUse" color-interpolation-filters="sRGB">
<feFlood flood-opacity="0" result="BackgroundImageFix"/>
<feColorMatrix in="SourceAlpha" type="matrix" values="0 0 0 0 0 0 0 0 0 0 0 0 0 0 0 0 0 0 127 0"/>
<feOffset dy="4"/>
<feGaussianBlur stdDeviation="2"/>
<feColorMatrix type="matrix" values="0 0 0 0 0 0 0 0 0 0 0 0 0 0 0 0 0 0 0.25 0"/>
<feBlend mode="normal" in2="BackgroundImageFix" result="effect1_dropShadow"/>
<feColorMatrix in="SourceAlpha" type="matrix" values="0 0 0 0 0 0 0 0 0 0 0 0 0 0 0 0 0 0 127 0"/>
<feOffset dy="4"/>
<feGaussianBlur stdDeviation="2"/>
<feColorMatrix type="matrix" values="0 0 0 0 0 0 0 0 0 0 0 0 0 0 0 0 0 0 0.25 0"/>
<feBlend mode="normal" in2="effect1_dropShadow" result="effect2_dropShadow"/>
<feColorMatrix in="SourceAlpha" type="matrix" values="0 0 0 0 0 0 0 0 0 0 0 0 0 0 0 0 0 0 127 0"/>
<feOffset dy="4"/>
<feGaussianBlur stdDeviation="2"/>
<feColorMatrix type="matrix" values="0 0 0 0 0 0 0 0 0 0 0 0 0 0 0 0 0 0 0.25 0"/>
<feBlend mode="normal" in2="effect2_dropShadow" result="effect3_dropShadow"/>
<feBlend mode="normal" in="SourceGraphic" in2="effect3_dropShadow" result="shape"/>
</filter>
</defs>
</svg>
